<svg xmlns="http://www.w3.org/2000/svg" width="129.071" height="40.254" viewBox="0 0 129.071 40.254">
  <g id="Group_23028" data-name="Group 23028" transform="translate(-23.5 -16)">
    <g id="logo-vnpay" transform="translate(24 16)">
      <rect id="boundingbox" width="128.571" height="40" fill="#fff" opacity="0"/>
      <g id="Group_10288" data-name="Group 10288" transform="translate(0 0.715)">
        <path id="Exclusion_1" data-name="Exclusion 1" d="M13.248,24.871h0a.2.2,0,0,0-.042-.055L10.7,22.286A8.247,8.247,0,0,1,22.4,10.668a.5.5,0,0,0,.355.147.486.486,0,0,0,.343-.139.493.493,0,0,0,.149-.352.478.478,0,0,0-.142-.342L23.1,9.974A9.232,9.232,0,1,0,10,22.98l1.841,1.858-.037,0a7.539,7.539,0,0,1-2.9-.966,5.3,5.3,0,0,1-1.111-.783s0,0-.005,0c-.063-.061-.132-.13-.216-.216L.812,16.111l-.144-.144A2.56,2.56,0,0,1,0,14.245c0-.083,0-.155.01-.221a2.655,2.655,0,0,1,.048-.32c.01-.041.019-.082.029-.12,0-.017.009-.034.014-.05a2.613,2.613,0,0,1,.469-.887c.058-.07.118-.137.183-.2l.12-.118,7.2-7.2L12.435.763A2.6,2.6,0,0,1,15.977.638L28.056,12.717l-1.119,1.119-1.22-1.227a.485.485,0,0,0-.348-.146.493.493,0,0,0-.348.144.492.492,0,0,0,0,.7l1.223,1.23L24.877,15.9l-3.84-3.872a6.268,6.268,0,0,0-4.475-1.871,6.355,6.355,0,0,0-1.965.312.492.492,0,0,0,.151.961A.484.484,0,0,0,14.9,11.4a5.378,5.378,0,0,1,1.66-.264,5.291,5.291,0,0,1,3.777,1.58L24.18,16.59l-.02.02-1.179,1.182-.166.166-3.848-3.879a3.405,3.405,0,1,0-4.836,4.8l2.484,2.5a.492.492,0,0,0,.35.145.492.492,0,0,0,.348-.84l-2.481-2.5a2.418,2.418,0,0,1,1.717-4.124,2.4,2.4,0,0,1,1.718.715l3.85,3.881-.017.018L20.923,19.85l-.166.166L16.9,16.13a.485.485,0,0,0-.348-.145.492.492,0,0,0-.494.493.486.486,0,0,0,.143.346l3.86,3.889.057-.057-.074.077L18.3,22.469l-.183.184a7.662,7.662,0,0,1-1.689,1.275l-3.665-3.695a5.332,5.332,0,0,1-.615-6.773.5.5,0,0,0-.127-.687.487.487,0,0,0-.278-.086.493.493,0,0,0-.407.214,6.326,6.326,0,0,0,.728,8.027l3.415,3.444-.007,0-.017.006a7.572,7.572,0,0,1-2.211.488Z" transform="translate(0)" fill="#fff" stroke="rgba(0,0,0,0)" stroke-miterlimit="10" stroke-width="1" opacity="0.8"/>
        <path id="Union_1" data-name="Union 1" d="M14,32.159l-.005-.005c-.065-.055-.127-.11-.189-.168l-1.463-1.463L8.232,26.411,6.86,25.039l-.192-.192a4.224,4.224,0,0,0,.675.053H7.35l.183,0a4.721,4.721,0,0,0,.78-.094,5.609,5.609,0,0,0,1.263-.428,7.194,7.194,0,0,0,1.888-1.326c.125-.122.219-.226.257-.271l3.161-3.106.012.014L25.763,9l.058-.069L31.1,3.73a2.086,2.086,0,0,1,2.627-.23l1.252,1.251a0,0,0,0,1,0,0l6.788,6.788a2.4,2.4,0,0,1,0,3.413l-.183.185-8.1,8.222L24.982,32a7.483,7.483,0,0,1-.855.738c-.009.009-.022.019-.034.029-.041.029-.082.06-.125.089,0,.005-.009.008-.014.012a7.843,7.843,0,0,1-9.956-.7ZM7.347,24.206a4.077,4.077,0,0,1-1.7-.38L4.263,22.446l-.339-.337-.057-.06-.643-.644L.162,18.31l.054.052a5.234,5.234,0,0,0,1.116.785,7.663,7.663,0,0,0,6.558.514,7.818,7.818,0,0,0,.951-.442,7.655,7.655,0,0,0,1.71-1.288l.183-.182v0l1.739-1.736h0l.182-.185.514-.514.183-.182,1.179-1.18.879-.879,1.179-1.182.185-.183L24.254,4.23,27.338.889,27.357.87l.166-.163a2.412,2.412,0,0,1,3.411,0l1.689,1.689h0l.055.055a2.764,2.764,0,0,0-2.066.786L24.9,8.856l-.057.07L14.9,18.711l-.014-.012-3.663,3.6-.024.029c-.009.012-.089.1-.221.231a6.508,6.508,0,0,1-1.7,1.194,4.948,4.948,0,0,1-1.105.375,4.434,4.434,0,0,1-.66.082ZM0,18.146l.162.164Q.081,18.23,0,18.146Z" transform="translate(7.568 4.721)" fill="#fff" stroke="rgba(0,0,0,0)" stroke-miterlimit="10" stroke-width="1"/>
      </g>
      <g id="Group_10289" data-name="Group 10289" transform="translate(53.123 11.67)">
        <path id="Path_8269" data-name="Path 8269" d="M241.051,35.355l-5.74-8.229-.584-.536h5.658l3.835,6.221.308-.251,2.318-3.445a1.814,1.814,0,0,0-.319-2.525h5.346l-6.18,8.763,0,6.358,1.09,1.295h-6.642l.937-1.276c0-2.119-.077-4.262-.022-6.376M225.465,26.59a2.383,2.383,0,0,1,.645,1.41,2,2,0,0,1-.116.976l-4.269,12.379a4.562,4.562,0,0,1-1.214,1.617h4.659a1.921,1.921,0,0,1-.647-1.107,1.824,1.824,0,0,1,.016-.929l.947-2.94h5.422l.845,2.266a2.6,2.6,0,0,1,.161.712,2.131,2.131,0,0,1-.869,2.035h7.3a6.727,6.727,0,0,1-1.746-2.118l-5.333-14.3Zm4.648,9.275h-3.878l1.881-5.358ZM210.7,26.6l3.67-.014h4.457a4.47,4.47,0,0,1,4.457,4.457V31.6a4.467,4.467,0,0,1-4.457,4.4l-2.032.062a4.165,4.165,0,0,0,2.114-4.36c-.164-1.372-.871-2.692-2.048-2.717l-.743-.016V41.176a.87.87,0,0,0,.166.546,8.476,8.476,0,0,0,.74,1l.215.258h-6.322c.1-.116.188-.234.277-.355a4.066,4.066,0,0,0,.489-.847,1.329,1.329,0,0,0,.122-.557V28.1c-.025-.684-.705-1.072-1.1-1.492" transform="translate(-176.424 -26.516)" fill="#fff" fill-rule="evenodd"/>
        <path id="Path_8270" data-name="Path 8270" d="M128.071,26.414h5.1l4.282,12.281,3.632-10.172a1.183,1.183,0,0,0-.142-.864c-.2-.413-.416-.814-.617-1.227h3.812c-.226.83-.559,1.741-.847,2.578l-4.922,14.3a8.028,8.028,0,0,1-4-1.9,6.984,6.984,0,0,1-1.611-2.885l-4.115-10.9a10.566,10.566,0,0,0-.575-1.218m20.374,5.755v8.775c0,.356.082.42.3.706l1.005,1.31h-4.8l.811-1.239a1.3,1.3,0,0,0,.3-.852V28.61l-1.35-2.2h4.978l8.059,10.381V28.522a1.323,1.323,0,0,0-.287-.864c-.27-.413-.552-.814-.823-1.227h4.8l-1,1.31c-.219.286-.3.349-.3.705V43.379a6.782,6.782,0,0,1-5.015-2.607Z" transform="translate(-128.071 -26.414)" fill="#fff" fill-rule="evenodd"/>
      </g>
    </g>
  </g>
</svg>